<svg width="32" height="31" viewBox="0 0 32 31" fill="none" xmlns="http://www.w3.org/2000/svg">
<circle cx="14.0234" cy="16.9768" r="14.0234" fill="#ADE8F4"/>
<circle cx="14.0197" cy="13.2853" r="13.2853" fill="#E10600"/>
<circle cx="14.0279" cy="16.9765" r="11.8091" fill="#082247"/>
<circle cx="14.3895" cy="15.1298" r="10.702" fill="#082247"/>
<path d="M29.8686 14.4473C29.8686 20.6546 24.8387 25.6994 18.6234 25.6994C12.421 25.6994 7.3782 20.6676 7.3782 14.4473C7.3782 8.24034 12.4074 3.19587 18.6222 3.19522C24.841 3.20923 29.8686 8.24255 29.8686 14.4473Z" fill="#C200E1" stroke="#C200E1" stroke-width="2.2564"/>
<path d="M26.6029 22.0252C22.317 26.3135 15.3597 26.3135 11.0738 22.0252C6.7879 17.7369 6.7879 10.7757 11.0738 6.48743C11.0738 6.48743 11.7196 13.243 16.0056 17.5313C20.2768 21.8343 30.8888 17.7369 26.6029 22.0252Z" fill="#6F0D80"/>
<path opacity="0.2" d="M17.3828 2.77228C25.2208 2.03798 28.0536 8.07391 28.0536 8.07391C28.0536 8.07391 22.5934 4.04996 17.3828 2.77228Z" fill="white"/>
<path d="M11.625 24.6394C17.9071 25.1094 20.461 21.4085 22.6921 18.1335C24.747 15.1082 26.611 11.9508 30.8089 12.2738C30.8089 12.2738 31.0144 13.0375 30.9997 13.9921C27.8146 13.8306 26.0386 16.2244 24.0865 19.0881C21.9875 22.1869 19.6244 25.6528 14.8835 26.2549C12.7699 25.6381 11.625 24.6394 11.625 24.6394Z" fill="white"/>
<path d="M6.28428 15.1966C6.28428 15.1966 5.93203 13.8014 6.69527 11.1727C8.86758 8.88165 12.3609 8.4117 15.5019 8.00049C20.1695 7.36899 23.1197 6.81093 23.5013 3.08069C23.5013 3.08069 24.2499 3.33035 24.9691 3.82967C24.338 9.17537 19.8612 9.13131 15.7368 9.68938C12.0673 10.174 7.67867 10.7321 6.28428 15.1966Z" fill="white"/>
</svg>
