<svg width="32" height="32" viewBox="0 0 32 32" fill="none" xmlns="http://www.w3.org/2000/svg">
<circle cx="14.3234" cy="17.34" r="14.3234" fill="#ADE8F4"/>
<circle cx="14.3213" cy="13.5695" r="13.5695" fill="#E10600"/>
<circle cx="14.3238" cy="17.3396" r="12.0618" fill="#082247"/>
<circle cx="14.6988" cy="15.4535" r="10.931" fill="#082247"/>
<path d="M30.6053 14.7565C30.6053 21.1501 25.4246 26.3462 19.0226 26.3462C12.6341 26.3462 7.43993 21.1634 7.43993 14.7565C7.43993 8.3633 12.6201 3.16736 19.0215 3.16674C25.4268 3.18109 30.6053 8.36535 30.6053 14.7565Z" fill="#35A800" stroke="#35A800" stroke-width="2.11082"/>
<path d="M27.1632 22.4967C22.7856 26.8767 15.6794 26.8767 11.3018 22.4967C6.92421 18.1166 6.92421 11.0065 11.3018 6.62646C11.3018 6.62646 11.9615 13.5265 16.3391 17.9066C20.7017 22.3017 31.5408 18.1166 27.1632 22.4967Z" fill="#63D72E"/>
<path opacity="0.2" d="M17.7487 2.83134C25.7543 2.08133 28.6477 8.24641 28.6477 8.24641C28.6477 8.24641 23.0708 4.13636 17.7487 2.83134Z" fill="white"/>
<path d="M11.8719 25.1667C18.2884 25.6467 20.897 21.8667 23.1757 18.5216C25.2746 15.4316 27.1786 12.2065 31.4662 12.5365C31.4662 12.5365 31.6761 13.3165 31.6611 14.2916C28.4079 14.1266 26.5939 16.5716 24.6 19.4966C22.4561 22.6617 20.0424 26.2017 15.2001 26.8167C13.0413 26.1867 11.8719 25.1667 11.8719 25.1667Z" fill="white"/>
<path d="M6.41566 15.5216C6.41566 15.5216 6.05586 14.0966 6.83544 11.4116C9.05423 9.07156 12.6223 8.59155 15.8305 8.17155C20.5979 7.52654 23.6113 6.95653 24.0011 3.14648C24.0011 3.14648 24.7657 3.40149 25.5003 3.91149C24.8556 9.37156 20.2831 9.32656 16.0704 9.89657C12.3224 10.3916 7.83988 10.9616 6.41566 15.5216Z" fill="white"/>
</svg>
