<svg width="32" height="32" viewBox="0 0 32 32" fill="none" xmlns="http://www.w3.org/2000/svg">
<circle cx="14.3234" cy="17.3399" r="14.3234" fill="#ADE8F4"/>
<circle cx="14.3195" cy="13.5695" r="13.5695" fill="#E10600"/>
<circle cx="14.3274" cy="17.3395" r="12.0618" fill="#082247"/>
<circle cx="14.6966" cy="15.4536" r="10.931" fill="#082247"/>
<path d="M30.6115 14.7564C30.6115 21.15 25.4307 26.3462 19.0287 26.3462C12.6402 26.3462 7.44603 21.1634 7.44603 14.7564C7.44603 8.36324 12.6262 3.1673 19.0276 3.16667C25.4329 3.18103 30.6115 8.36529 30.6115 14.7564Z" fill="#FF9614" stroke="#FF9614" stroke-width="2.11082"/>
<path d="M27.168 22.4965C22.7904 26.8765 15.6843 26.8765 11.3067 22.4965C6.92903 18.1164 6.92903 11.0063 11.3067 6.62628C11.3067 6.62628 11.9663 13.5264 16.3439 17.9064C20.7065 22.3015 31.5456 18.1164 27.168 22.4965Z" fill="#FFB457"/>
<path opacity="0.2" d="M17.75 2.83146C25.7556 2.08145 28.6491 8.24653 28.6491 8.24653C28.6491 8.24653 23.0721 4.13648 17.75 2.83146Z" fill="white"/>
<path d="M11.875 25.1667C18.2915 25.6467 20.9001 21.8667 23.1788 18.5216C25.2777 15.4316 27.1817 12.2065 31.4693 12.5365C31.4693 12.5365 31.6792 13.3165 31.6642 14.2916C28.411 14.1266 26.597 16.5716 24.6031 19.4966C22.4592 22.6617 20.0456 26.2017 15.2032 26.8167C13.0444 26.1867 11.875 25.1667 11.875 25.1667Z" fill="white"/>
<path d="M6.41883 15.5215C6.41883 15.5215 6.05904 14.0965 6.83861 11.4115C9.0574 9.07144 12.6255 8.59143 15.8337 8.17143C20.6011 7.52642 23.6145 6.95641 24.0043 3.14636C24.0043 3.14636 24.7688 3.40137 25.5034 3.91137C24.8588 9.37144 20.2863 9.32644 16.0736 9.89645C12.3256 10.3915 7.84306 10.9615 6.41883 15.5215Z" fill="white"/>
</svg>
