<svg width="355" height="355" viewBox="0 0 355 355" fill="none" xmlns="http://www.w3.org/2000/svg">
<g opacity="0.05">
<path fill-rule="evenodd" clip-rule="evenodd" d="M128.183 239.069C155.447 264.828 198.098 264.924 225.477 239.357C218.501 232.295 213.162 224.223 209.461 215.616H203.322C201.173 215.616 199.43 213.874 199.43 211.724C199.43 209.575 201.173 207.833 203.322 207.833H206.602C204.675 201.566 203.564 195.103 203.268 188.609H197.186C195.037 188.609 193.295 186.867 193.295 184.718C193.295 182.569 195.037 180.826 197.186 180.826H203.302C203.657 174.326 204.829 167.863 206.818 161.603H203.322C201.173 161.603 199.43 159.86 199.43 157.711C199.43 155.562 201.173 153.82 203.322 153.82H209.762C213.011 146.465 217.463 139.513 223.119 133.263C196.704 110.687 157.665 110.601 131.153 133.003C136.816 139.335 141.254 146.376 144.466 153.82H149.934C152.084 153.82 153.826 155.562 153.826 157.711C153.826 159.86 152.084 161.603 149.934 161.603H147.337C149.272 167.868 150.391 174.332 150.696 180.826H156.054C158.203 180.826 159.945 182.569 159.945 184.718C159.945 186.867 158.203 188.609 156.054 188.609H150.67C150.323 195.108 149.16 201.572 147.179 207.833H149.934C152.084 207.833 153.826 209.575 153.826 211.724C153.826 213.874 152.084 215.616 149.934 215.616H144.246C140.501 224.125 135.147 232.096 128.183 239.069ZM138.968 207.833H130.909C128.76 207.833 127.017 209.575 127.017 211.724C127.017 213.874 128.76 215.616 130.909 215.616H135.645C132.427 222.033 128.152 228.056 122.82 233.425C99.3847 205.929 100.274 164.805 125.487 138.343C129.726 143.112 133.196 148.325 135.896 153.82H130.909C128.76 153.82 127.017 155.562 127.017 157.711C127.017 159.86 128.76 161.603 130.909 161.603H139.146C141.311 167.833 142.564 174.31 142.903 180.826H137.028C134.879 180.826 133.137 182.569 133.137 184.718C133.137 186.867 134.879 188.609 137.028 188.609H142.875C142.488 195.131 141.186 201.609 138.968 207.833ZM230.873 233.744C225.504 228.279 221.222 222.146 218.026 215.616H222.347C224.497 215.616 226.239 213.874 226.239 211.724C226.239 209.575 224.497 207.833 222.347 207.833H214.789C212.634 201.601 211.39 195.124 211.059 188.609H216.212C218.361 188.609 220.103 186.867 220.103 184.718C220.103 182.569 218.361 180.826 216.212 180.826H211.098C211.494 174.304 212.805 167.826 215.032 161.603H222.347C224.497 161.603 226.239 159.86 226.239 157.711C226.239 155.562 224.497 153.82 222.347 153.82H218.369C221.084 148.427 224.546 143.314 228.755 138.634C253.796 165.209 254.501 206.349 230.873 233.744ZM121.874 130.927C121.65 131.145 121.428 131.365 121.206 131.587C90.4019 162.391 90.4019 212.335 121.206 243.14C152.011 273.944 201.955 273.944 232.76 243.14C263.564 212.335 263.564 162.391 232.76 131.587C202.855 101.683 154.914 100.809 123.956 128.965C123.479 129.155 123.032 129.442 122.646 129.828C122.318 130.157 122.06 130.529 121.874 130.927Z" fill="#082247"/>
</g>
</svg>
