<svg width="35" height="35" viewBox="0 0 35 35" fill="none" xmlns="http://www.w3.org/2000/svg">
<path fill-rule="evenodd" clip-rule="evenodd" d="M17.4998 0.416748C8.05275 0.416748 0.416504 8.053 0.416504 17.5001C0.416504 26.9472 8.05275 34.5834 17.4998 34.5834C26.9469 34.5834 34.5832 26.9472 34.5832 17.5001C34.5832 8.053 26.9469 0.416748 17.4998 0.416748ZM17.4998 31.1667C9.96609 31.1667 3.83317 25.0338 3.83317 17.5001C3.83317 9.96633 9.96609 3.83341 17.4998 3.83341C25.0336 3.83341 31.1665 9.96633 31.1665 17.5001C31.1665 25.0338 25.0336 31.1667 17.4998 31.1667ZM17.4998 15.0913L23.6328 8.95841L26.0415 11.3672L19.9086 17.5001L26.0415 23.633L23.6328 26.0417L17.4998 19.9088L11.3669 26.0417L8.95817 23.633L15.0911 17.5001L8.95817 11.3672L11.3669 8.95841L17.4998 15.0913Z" fill="#A6A6A6"/>
</svg>
