<svg width="20" height="20" viewBox="0 0 20 20" fill="none" xmlns="http://www.w3.org/2000/svg">
<path fill-rule="evenodd" clip-rule="evenodd" d="M4.1875 9.99992C4.1875 12.9333 6.3625 15.3583 9.1875 15.7666V18.2916C4.97917 17.8749 1.6875 14.3249 1.6875 9.99992C1.6875 5.67492 4.97917 2.12492 9.1875 1.70825V4.23325C6.3625 4.64159 4.1875 7.06659 4.1875 9.99992ZM10.8542 4.23325C13.4042 4.59992 15.4208 6.61659 15.7875 9.16658H18.3125C17.9208 5.23325 14.7875 2.09992 10.8542 1.70825V4.23325ZM15.7875 10.8333C15.4208 13.3833 13.4042 15.3999 10.8542 15.7666V18.2916C14.7875 17.8999 17.9208 14.7666 18.3125 10.8333H15.7875Z" fill="#ADE8F4"/>
</svg>
