<svg width="20" height="20" viewBox="0 0 20 20" fill="none" xmlns="http://www.w3.org/2000/svg">
<path fill-rule="evenodd" clip-rule="evenodd" d="M9.99967 3.33325C8.15801 3.33325 6.66634 4.82492 6.66634 6.66659C6.66634 8.50825 8.15801 9.99992 9.99967 9.99992C11.8413 9.99992 13.333 8.50825 13.333 6.66659C13.333 4.82492 11.8413 3.33325 9.99967 3.33325ZM11.6663 6.66659C11.6663 5.74992 10.9163 4.99992 9.99967 4.99992C9.08301 4.99992 8.33301 5.74992 8.33301 6.66659C8.33301 7.58325 9.08301 8.33325 9.99967 8.33325C10.9163 8.33325 11.6663 7.58325 11.6663 6.66659ZM14.9997 14.1666C14.833 13.5749 12.2497 12.4999 9.99967 12.4999C7.74967 12.4999 5.16634 13.5749 4.99967 14.1749V14.9999H14.9997V14.1666ZM3.33301 14.1666C3.33301 11.9499 7.77467 10.8333 9.99967 10.8333C12.2247 10.8333 16.6663 11.9499 16.6663 14.1666V16.6666H3.33301V14.1666Z" fill="#ADE8F4"/>
</svg>
