<svg width="20" height="20" viewBox="0 0 20 20" fill="none" xmlns="http://www.w3.org/2000/svg">
<path fill-rule="evenodd" clip-rule="evenodd" d="M10.0003 1.66675C5.40033 1.66675 1.66699 5.40008 1.66699 10.0001C1.66699 14.6001 5.40033 18.3334 10.0003 18.3334C14.6003 18.3334 18.3337 14.6001 18.3337 10.0001C18.3337 5.40008 14.6003 1.66675 10.0003 1.66675ZM8.33366 13.7501L13.3337 10.0001L8.33366 6.25008V13.7501ZM3.33366 10.0001C3.33366 13.6751 6.32533 16.6667 10.0003 16.6667C13.6753 16.6667 16.667 13.6751 16.667 10.0001C16.667 6.32508 13.6753 3.33341 10.0003 3.33341C6.32533 3.33341 3.33366 6.32508 3.33366 10.0001Z" fill="#ADE8F4"/>
</svg>
