<svg width="32" height="32" viewBox="0 0 32 32" fill="none" xmlns="http://www.w3.org/2000/svg">
<circle cx="14.2304" cy="17.2273" r="14.2304" fill="#ADE8F4"/>
<circle cx="14.2314" cy="13.4814" r="13.4814" fill="#023E8A"/>
<circle cx="14.2335" cy="17.2253" r="11.9835" fill="#082247"/>
<circle cx="14.61" cy="15.3528" r="10.86" fill="#082247"/>
<path d="M30.5723 14.66C30.5723 21.0987 25.355 26.3317 18.9076 26.3317C12.4737 26.3317 7.2429 21.1122 7.2429 14.66C7.2429 8.22167 12.4597 2.98884 18.9066 2.98832C25.3568 3.00268 30.5723 8.2234 30.5723 14.66Z" fill="white" stroke="#D7DBDB" stroke-width="1.78267"/>
<path d="M26.9968 22.3509C22.6476 26.7025 15.5876 26.7025 11.2385 22.3509C6.88927 17.9993 6.88927 10.9354 11.2385 6.5838C11.2385 6.5838 11.8938 13.4391 16.243 17.7907C20.5773 22.1572 31.346 17.9993 26.9968 22.3509Z" fill="#ADE8F4"/>
<path opacity="0.2" d="M17.6406 2.81396C25.5943 2.06882 28.4689 8.19386 28.4689 8.19386C28.4689 8.19386 22.9282 4.1105 17.6406 2.81396Z" fill="white"/>
<path d="M11.8047 25.0023C18.1795 25.4792 20.7712 21.7237 23.0351 18.4004C25.1203 15.3304 27.0119 12.1263 31.2718 12.4542C31.2718 12.4542 31.4803 13.2291 31.4654 14.1978C28.2333 14.0339 26.4311 16.463 24.4501 19.3691C22.3202 22.5135 19.9222 26.0306 15.1113 26.6416C12.9665 26.0157 11.8047 25.0023 11.8047 25.0023Z" fill="#E10600"/>
<path d="M6.37923 15.4205C6.37923 15.4205 6.02177 14.0047 6.79629 11.3372C9.00067 9.01232 12.5455 8.53544 15.733 8.11816C20.4694 7.47734 23.4632 6.91103 23.8504 3.12573C23.8504 3.12573 24.6101 3.37908 25.3399 3.88577C24.6994 9.31038 20.1566 9.26567 15.9713 9.83198C12.2477 10.3238 7.79421 10.8901 6.37923 15.4205Z" fill="#E10600"/>
</svg>
