<svg width="46" height="46" viewBox="0 0 46 46" fill="none" xmlns="http://www.w3.org/2000/svg">
<circle cx="20.8088" cy="25.1904" r="20.8088" fill="#ADE8F4"/>
<circle cx="20.8081" cy="19.7136" r="19.7136" fill="#023E8A"/>
<circle cx="20.8105" cy="25.1904" r="17.5232" fill="#082247"/>
<circle cx="21.3565" cy="22.4512" r="15.8804" fill="#082247"/>
<path d="M45.4995 21.4373C45.4995 31.2951 37.5116 39.308 27.639 39.308C17.7874 39.308 9.77856 31.3161 9.77856 21.4373C9.77856 11.5797 17.7661 3.56694 27.6385 3.56665C37.5127 3.58814 45.4995 11.5807 45.4995 21.4373Z" fill="white" stroke="#D7DBDB"/>
<path d="M39.4633 32.6817C33.1036 39.045 22.7799 39.045 16.4202 32.6817C10.0605 26.3184 10.0605 15.989 16.4202 9.62573C16.4202 9.62573 17.3785 19.6501 23.7382 26.0133C30.0762 32.3984 45.823 26.3184 39.4633 32.6817Z" fill="#ADE8F4"/>
<path opacity="0.2" d="M25.7852 4.11365C37.4156 3.02405 41.6191 11.9806 41.6191 11.9806C41.6191 11.9806 33.517 6.00956 25.7852 4.11365Z" fill="white"/>
<path d="M17.2495 36.5615C26.5713 37.2589 30.361 31.7673 33.6715 26.9077C36.7207 22.4185 39.4868 17.7332 45.7158 18.2126C45.7158 18.2126 46.0208 19.3458 45.999 20.7623C41.2727 20.5226 38.6374 24.0747 35.7406 28.3241C32.6261 32.9223 29.1196 38.0652 22.0846 38.9586C18.9483 38.0434 17.2495 36.5615 17.2495 36.5615Z" fill="#E10600"/>
<path d="M9.32013 22.5492C9.32013 22.5492 8.79743 20.479 9.92999 16.5782C13.1534 13.1786 18.337 12.4813 22.9979 11.8711C29.9239 10.9341 34.3017 10.106 34.868 4.5708C34.868 4.5708 35.9787 4.94127 37.0459 5.68219C36.1094 13.6145 29.4665 13.5491 23.3464 14.3772C17.9014 15.0963 11.3892 15.9244 9.32013 22.5492Z" fill="#E10600"/>
</svg>
