<svg width="34" height="34" viewBox="0 0 34 34" fill="none" xmlns="http://www.w3.org/2000/svg">
<path fill-rule="evenodd" clip-rule="evenodd" d="M16.9997 2.83325C9.16551 2.83325 2.83301 9.16575 2.83301 16.9999C2.83301 24.8341 9.16551 31.1666 16.9997 31.1666C24.8338 31.1666 31.1663 24.8341 31.1663 16.9999C31.1663 9.16575 24.8338 2.83325 16.9997 2.83325ZM16.9997 28.3333C10.7522 28.3333 5.6664 23.2474 5.6664 16.9999C5.6664 10.7524 10.7522 5.6666 16.9997 5.6666C23.2472 5.6666 28.3331 10.7524 28.3331 16.9999C28.3331 23.2474 23.2472 28.3333 16.9997 28.3333ZM16.9997 15.0024L22.0856 9.9166L24.0831 11.9141L18.9972 16.9999L24.0831 22.0858L22.0856 24.0833L16.9997 18.9974L11.9139 24.0833L9.9164 22.0858L15.0022 16.9999L9.9164 11.9141L11.9139 9.9166L16.9997 15.0024Z" fill="#E10600"/>
</svg>
